<svg viewBox="0 0 575 575">
<g transform="rotate(0 0 0)"><svg viewBoxSize="575" data-root-id="3717292489128" xmlns="http://www.w3.org/2000/svg" xmlns:xlink="http://www.w3.org/1999/xlink" version="1.1" id="Layer_1" x="220.508" y="206.62599353027343" viewBox="344.577880859375 356.0450134277344 310.8489990234375 287.9350280761719" xml:space="preserve" height="124.1078216884125" width="133.984375" preserveAspectRatio="xMinYMin" zoom="1" editorType="buyer" data-layer-role="icon" style="position: absolute; height: 124.108px; width: 133.984px; top: 206.626px; left: 220.508px;"><path d="M351.16,467.6L351.16,467.6l23.8-16.35c1.03-0.25,1.92-0.87,2.5-1.72L500,365.32L648.84,467.6   c1.91,1.31,4.53,0.83,5.84-1.08c1.31-1.91,0.83-4.53-1.08-5.84l-151.22-103.9c-1.43-0.98-3.33-0.98-4.76,0l-119.44,82.07l0-54.72   h33.11v12.84c0,2.32,1.88,4.2,4.2,4.2s4.2-1.88,4.2-4.2v-17.04c0-1.11-0.45-2.19-1.23-2.97c-0.78-0.78-1.86-1.23-2.97-1.23h-41.51   c-1.11,0-2.19,0.45-2.97,1.23c-0.78,0.78-1.23,1.86-1.23,2.97v64.69l-23.38,16.07c-1.91,1.31-2.4,3.93-1.08,5.84   C346.63,468.42,349.25,468.91,351.16,467.6z" name="Layer %{number}" zoom="1" data-layer-id="2165256489156" style="fill: rgb(29, 117, 189); fill-opacity: 1;"></path><path d="M653.6,497.4L653.6,497.4l-151.22-103.9c-1.43-0.98-3.33-0.98-4.76,0L346.4,497.4c-1.91,1.31-2.4,3.93-1.08,5.84   c1.31,1.91,3.93,2.4,5.84,1.08l46.29-31.8c4.47,4,9.57,7.21,14.83,9.47c5.92,2.54,11.98,3.95,17.58,3.96   c1.73,0,3.42-0.14,5.05-0.44c4.47-0.82,9.59-2.18,15.03-3.31c5.43-1.14,11.15-2.05,16.59-2.04c2.14,0,4.23,0.14,6.25,0.45   c4.07,0.63,7.03,1.55,9.16,2.48c-3.88,3.28-9.55,8.1-15.47,13.2c-5.32,4.58-10.82,9.39-15.4,13.52c-2.29,2.06-4.34,3.96-6.04,5.58   c-1.7,1.63-3.02,2.95-3.97,4.07c-4.31,5.11-6.52,10.76-6.53,16.08c-0.01,4.09,1.38,8.05,4.2,10.94c2.81,2.9,6.93,4.51,11.51,4.49   c1.72,0,3.52-0.21,5.38-0.64c1.57-0.37,2.92-1.04,4.24-1.85c2.3-1.42,4.55-3.33,6.89-5.49c3.48-3.23,7.1-7.03,10.51-10.39   c1.7-1.68,3.35-3.25,4.86-4.56c1.51-1.31,2.89-2.36,3.96-3c3.8-2.27,8.02-3.38,12.22-3.38c5.97,0,11.85,2.24,16.37,6.61   l40.76,41.29l0,0c2.01,2.22,4.32,4.02,6.82,5.41c1.58,1.83,2.69,3.65,3.45,5.45c0.97,2.31,1.37,4.6,1.37,6.83   c0,0.89-0.07,1.78-0.19,2.64c0.01,0.1-0.27,0.94-0.98,1.89c-1.04,1.45-2.91,3.18-5.08,4.42c-2.18,1.26-4.62,2.04-6.9,2.03   c-1.22,0-2.39-0.21-3.57-0.67c-1.17-0.47-2.37-1.2-3.59-2.37c-1.63-1.56-4.19-1.56-5.82,0.01c-1.62,1.56-1.72,4.11-0.24,5.79l0,0   l0.02,0.03c0.15,0.17,0.91,1.12,1.56,2.43c0.67,1.31,1.21,2.94,1.2,4.46c-0.01,1.15-0.25,2.26-1.01,3.54   c-0.77,1.27-2.16,2.75-4.69,4.29c-1.77,1.07-3.2,1.39-4.53,1.39c-1.36,0-2.69-0.38-4.01-1.05c-1.77-0.89-3.43-2.34-4.68-3.68   c-0.37-0.57-0.74-1.1-1.09-1.55c-1.03-1.33-1.85-2.12-1.96-2.23c-1.53-1.47-3.91-1.56-5.56-0.23c-1.64,1.33-2.04,3.69-0.92,5.48   c0.09,0.14,1.07,1.71,2.84,3.68c0.37,0.63,0.72,1.3,0.96,1.98c0.28,0.78,0.43,1.55,0.43,2.23c-0.01,0.79-0.16,1.49-0.65,2.33   c-0.5,0.84-1.4,1.86-3.11,2.97c-0.46,0.29-1.03,0.47-1.96,0.48c-1.09,0.01-2.6-0.32-4.18-0.93c-2.37-0.9-4.88-2.37-6.71-3.61   c-0.92-0.62-1.68-1.18-2.2-1.58c-0.26-0.2-0.46-0.36-0.59-0.46l-0.14-0.11l-0.03-0.02c-1.33-1.11-3.2-1.29-4.72-0.45   c-1.51,0.83-2.35,2.49-2.13,4.2l-0.01,0l0,0.03c0.01,0.08,0.03,0.33,0.03,0.68c0,0.61-0.06,1.54-0.3,2.55   c-0.37,1.53-1.09,3.16-2.58,4.54c-1.5,1.38-3.91,2.72-8.38,3.19l-0.22,0.01c-0.58,0.01-1.87-0.23-3.54-0.92   c-2.75-1.11-6.49-3.29-10.76-6.29l15.87-15.31c3.37-3.25,5.09-7.62,5.08-11.96c0-4.14-1.55-8.32-4.65-11.53   c-3.22-3.34-7.54-5.05-11.84-5.08c0.09-0.72,0.16-1.44,0.16-2.16c0-4.14-1.55-8.32-4.65-11.53c-3.25-3.37-7.62-5.09-11.96-5.08   c-4.02,0-8.08,1.48-11.26,4.42c-0.68-2.75-2.05-5.38-4.16-7.55c-3.25-3.37-7.62-5.09-11.96-5.08c-2.08,0-4.18,0.39-6.16,1.18   c-0.53-3.22-2-6.32-4.42-8.84c-3.25-3.37-7.62-5.09-11.96-5.08c-4.14,0-8.32,1.55-11.53,4.66l-0.08,0.08l-5.15,5.24   c-0.81-0.85-1.66-1.74-2.44-2.57c-6.77-7.15-12.49-13.31-16.51-17.67c-2.01-2.18-3.6-3.92-4.68-5.11   c-1.08-1.19-1.66-1.82-1.66-1.83c-1.55-1.72-4.21-1.86-5.93-0.31c-1.72,1.55-1.86,4.21-0.31,5.93   c0.02,0.02,10.59,11.75,25.63,27.55l-1.3,1.32l0,0c-3.32,3.24-5.01,7.58-5.01,11.88c0,4.14,1.55,8.32,4.66,11.53   c3.25,3.37,7.62,5.09,11.96,5.08c2.08,0,4.18-0.39,6.16-1.18c0.53,3.21,2,6.32,4.42,8.84c0,0,0,0,0,0   c3.25,3.37,7.62,5.09,11.96,5.08c1.32,0,2.65-0.18,3.95-0.49c0.4,3.5,1.91,6.93,4.54,9.66c3.22,3.34,7.54,5.05,11.84,5.08   c-0.09,0.72-0.16,1.44-0.16,2.16c0,4.14,1.55,8.32,4.65,11.53l0,0l0,0l0,0l0,0c3.25,3.37,7.62,5.09,11.96,5.08   c2.9,0,5.81-0.78,8.41-2.3c2.4,1.73,4.71,3.32,6.87,4.65c2.58,1.58,4.98,2.86,7.25,3.78c2.28,0.92,4.43,1.52,6.7,1.54   c0.36,0,0.72-0.02,1.09-0.05c3.91-0.4,7.16-1.42,9.78-2.89c3.95-2.2,6.35-5.45,7.56-8.41c0.17-0.41,0.28-0.8,0.41-1.2   c0.05,0.03,0.09,0.06,0.14,0.09c1.76,1.05,3.79,2.12,6,2.96c2.21,0.83,4.6,1.47,7.17,1.48c2.13,0.01,4.46-0.49,6.52-1.82   c2.57-1.66,4.51-3.59,5.78-5.75c0.76-1.28,1.24-2.63,1.52-3.96c1.78,0.67,3.75,1.12,5.89,1.12c2.87,0.01,5.95-0.82,8.89-2.61   c3.42-2.07,5.9-4.47,7.5-7.09c1.61-2.61,2.25-5.41,2.24-7.91c0-0.5-0.08-0.95-0.12-1.42c0.72,0.08,1.44,0.14,2.15,0.14   c2.75,0,5.35-0.59,7.72-1.52c3.55-1.4,6.59-3.54,8.94-5.91c1.17-1.19,2.18-2.45,2.97-3.77c0.79-1.33,1.4-2.72,1.64-4.34   c0.18-1.24,0.27-2.52,0.27-3.83c0-2.9-0.52-5.94-1.62-8.97c0.49,0.03,0.98,0.08,1.47,0.08c5.37,0,10.79-1.62,15.46-4.91l0,0   l41.73-27.14c1.94-1.26,2.5-3.87,1.23-5.81c-1.08-1.66-3.14-2.3-4.93-1.66c-0.3,0.11-0.6,0.24-0.88,0.42l0,0L586.2,566.4l-0.15,0.1   c-3.25,2.32-6.99,3.44-10.73,3.45c-5.11,0-10.14-2.1-13.77-6.15l-0.14-0.15l-40.81-41.35l-0.07-0.07   c-6.12-5.92-14.15-8.98-22.22-8.98c-5.68,0-11.41,1.51-16.53,4.58c-2.64,1.59-5.21,3.83-7.89,6.35c-4,3.78-8.16,8.22-11.91,11.77   c-1.87,1.78-3.63,3.33-5.12,4.42c-1.47,1.11-2.73,1.7-3.1,1.75c-1.31,0.3-2.48,0.43-3.51,0.43c-2.75-0.02-4.38-0.84-5.49-1.96   c-1.1-1.13-1.8-2.79-1.81-5.07c-0.01-2.93,1.29-6.8,4.55-10.66c0.54-0.65,1.76-1.9,3.36-3.43c5.63-5.39,16.06-14.48,25.03-22.16   c4.49-3.84,8.62-7.35,11.62-9.89c1.5-1.27,2.73-2.3,3.57-3.01c0.85-0.71,1.31-1.1,1.31-1.1c0.21-0.18,0.41-0.39,0.58-0.61l0.01,0   c0,0,0.89-1.07,2.81-2.11c1.93-1.04,4.88-2.12,9.31-2.12c2.92,0,6.48,0.48,10.8,1.82c10.86,3.37,27.83,7.19,45.79,7.2   c15.46-0.01,31.76-2.85,45.29-11.71c0.31-0.2,0.62-0.39,0.92-0.59c0.23-0.16,0.44-0.34,0.63-0.54l40.33,27.71   c1.91,1.31,4.53,0.83,5.84-1.08C656,501.33,655.51,498.71,653.6,497.4z M446.25,625.39L446.25,625.39L446.25,625.39   c-1.55-1.61-2.3-3.63-2.3-5.7c0.01-2.17,0.83-4.29,2.51-5.91l19.28-18.59c1.61-1.54,3.63-2.3,5.7-2.3   c2.17,0.01,4.29,0.83,5.91,2.51c1.54,1.6,2.3,3.63,2.3,5.7c0,2.17-0.83,4.29-2.51,5.91l-19.28,18.59c-1.61,1.54-3.63,2.3-5.7,2.3   C450,627.9,447.87,627.07,446.25,625.39z M409.47,592.38L409.47,592.38L409.47,592.38c-1.55-1.61-2.3-3.63-2.3-5.7   c0.01-2.17,0.83-4.29,2.51-5.91l0.08-0.08l12.28-12.49c1.6-1.54,3.63-2.29,5.69-2.29c2.17,0,4.29,0.83,5.91,2.51   c1.54,1.61,2.3,3.63,2.3,5.7c-0.01,2.17-0.83,4.29-2.51,5.91l-0.08,0.08l-12.28,12.49c-1.6,1.54-3.63,2.29-5.69,2.29   C413.21,594.89,411.09,594.06,409.47,592.38z M384.62,573.94c0.01-2.17,0.83-4.29,2.51-5.91l0.08-0.08l12.28-12.49   c1.6-1.54,3.63-2.29,5.69-2.29c2.17,0.01,4.29,0.83,5.91,2.51c0,0,0,0,0,0c1.54,1.61,2.3,3.63,2.3,5.7   c-0.01,2.17-0.83,4.29-2.51,5.91l-0.08,0.08l-12.28,12.49c-1.6,1.54-3.63,2.29-5.69,2.29c-2.17-0.01-4.29-0.83-5.91-2.51   C385.38,578.04,384.63,576.01,384.62,573.94z M455.1,574.12c2.17,0.01,4.29,0.83,5.91,2.51c1.54,1.6,2.3,3.63,2.3,5.7   c0,2.17-0.83,4.29-2.51,5.91l-19.28,18.59c-1.61,1.54-3.63,2.3-5.7,2.3c-2.17-0.01-4.29-0.83-5.91-2.51l0,0l0,0   c-1.54-1.61-2.3-3.63-2.3-5.7c0-1.48,0.42-2.93,1.2-4.23l8.09-8.23l12.49-12.05C451.01,574.88,453.04,574.13,455.1,574.12z    M466.53,471.76c-6.36,0-12.61,1.03-18.31,2.22c-5.69,1.19-10.86,2.55-14.83,3.27c-1.07,0.2-2.26,0.3-3.54,0.3   c-4.16,0.01-9.25-1.11-14.27-3.28c-3.85-1.65-7.65-3.92-11.02-6.65L500,402.05l101.11,69.47c-11.35,7-25.49,9.54-39.44,9.53   c-16.76,0.01-33.1-3.64-43.3-6.82c-5.03-1.57-9.46-2.2-13.3-2.2c-6.22-0.01-10.87,1.69-13.93,3.49c-0.95,0.56-1.74,1.12-2.4,1.64   c-3.12-1.89-7.81-3.81-14.7-4.86C471.55,471.92,469.03,471.76,466.53,471.76z" name="Layer %{number}" zoom="1" data-layer-id="5480214389167" style="fill: rgb(29, 117, 189); fill-opacity: 1;"></path></svg></g>
</svg>